<svg xmlns="http://www.w3.org/2000/svg" viewBox="0 0 64 64" fill="none">
  <rect width="64" height="64" rx="14" fill="#000"/>
  <g fill="#fff">
    <rect x="22" y="10" width="6" height="6"/>
    <rect x="40" y="10" width="6" height="6"/>

    <rect x="16" y="16" width="6" height="6"/>
    <rect x="22" y="16" width="6" height="6"/>
    <rect x="28" y="16" width="6" height="6"/>
    <rect x="34" y="16" width="6" height="6"/>
    <rect x="40" y="16" width="6" height="6"/>
    <rect x="46" y="16" width="6" height="6"/>

    <rect x="16" y="22" width="6" height="6"/>
    <rect x="28" y="22" width="6" height="6"/>
    <rect x="34" y="22" width="6" height="6"/>
    <rect x="46" y="22" width="6" height="6"/>

    <rect x="16" y="28" width="6" height="6"/>
    <rect x="22" y="28" width="6" height="6"/>
    <rect x="28" y="28" width="6" height="6"/>
    <rect x="34" y="28" width="6" height="6"/>
    <rect x="40" y="28" width="6" height="6"/>
    <rect x="46" y="28" width="6" height="6"/>

    <rect x="22" y="34" width="6" height="6"/>
    <rect x="40" y="34" width="6" height="6"/>
    <rect x="16" y="40" width="6" height="6"/>
    <rect x="46" y="40" width="6" height="6"/>
  </g>
</svg>
