<svg xmlns="http://www.w3.org/2000/svg" width="1200" height="630" viewBox="0 0 1200 630" fill="none">
  <defs>
    <linearGradient id="fade" x1="420" y1="0" x2="710" y2="0" gradientUnits="userSpaceOnUse">
      <stop stop-color="#09090b" stop-opacity="0"/>
      <stop offset="1" stop-color="#09090b"/>
    </linearGradient>
  </defs>

  <rect width="1200" height="630" fill="#09090b"/>
  <image href="/assets/hero-invader.png" x="0" y="0" width="660" height="630" preserveAspectRatio="xMidYMid slice"/>
  <rect x="380" y="0" width="330" height="630" fill="url(#fade)"/>

  <text x="690" y="72"
        font-family="Arial, Helvetica, sans-serif"
        font-size="22"
        font-weight="700"
        fill="#ff9f1f">Founder context for coding agents</text>

  <rect x="690" y="96" width="126" height="126" fill="#09090b" stroke="#2a2a2d" rx="18"/>
  <g transform="translate(707 113)">
    <rect width="92" height="92" fill="#09090b"/>
    <rect x="24" y="8" width="6" height="6" fill="#ffffff"/>
    <rect x="40" y="8" width="6" height="6" fill="#ffffff"/>
    <rect x="18" y="14" width="6" height="6" fill="#ffffff"/>
    <rect x="24" y="14" width="6" height="6" fill="#ffffff"/>
    <rect x="30" y="14" width="6" height="6" fill="#ffffff"/>
    <rect x="36" y="14" width="6" height="6" fill="#ffffff"/>
    <rect x="42" y="14" width="6" height="6" fill="#ffffff"/>
    <rect x="48" y="14" width="6" height="6" fill="#ffffff"/>
    <rect x="12" y="20" width="6" height="6" fill="#ffffff"/>
    <rect x="18" y="20" width="6" height="6" fill="#ffffff"/>
    <rect x="24" y="20" width="6" height="6" fill="#ffab2e"/>
    <rect x="30" y="20" width="6" height="6" fill="#1f2336"/>
    <rect x="36" y="20" width="6" height="6" fill="#ffab2e"/>
    <rect x="42" y="20" width="6" height="6" fill="#1f2336"/>
    <rect x="48" y="20" width="6" height="6" fill="#ffffff"/>
    <rect x="54" y="20" width="6" height="6" fill="#ffffff"/>
    <rect x="6" y="26" width="6" height="6" fill="#ffffff"/>
    <rect x="12" y="26" width="6" height="6" fill="#ffffff"/>
    <rect x="18" y="26" width="6" height="6" fill="#ffffff"/>
    <rect x="24" y="26" width="6" height="6" fill="#ffffff"/>
    <rect x="30" y="26" width="6" height="6" fill="#ffffff"/>
    <rect x="36" y="26" width="6" height="6" fill="#ffffff"/>
    <rect x="42" y="26" width="6" height="6" fill="#ffffff"/>
    <rect x="48" y="26" width="6" height="6" fill="#ffffff"/>
    <rect x="54" y="26" width="6" height="6" fill="#ffffff"/>
    <rect x="6" y="32" width="6" height="6" fill="#ffffff"/>
    <rect x="12" y="32" width="6" height="6" fill="#ffffff"/>
    <rect x="48" y="32" width="6" height="6" fill="#ffffff"/>
    <rect x="54" y="32" width="6" height="6" fill="#ffffff"/>
    <rect x="24" y="38" width="6" height="6" fill="#ffffff"/>
    <rect x="36" y="38" width="6" height="6" fill="#ffffff"/>
  </g>

  <text x="690" y="318"
        font-family="Arial, Helvetica, sans-serif"
        font-size="78"
        font-weight="700"
        fill="#f5f3ee">Founder</text>
  <text x="690" y="392"
        font-family="Arial, Helvetica, sans-serif"
        font-size="78"
        font-weight="700"
        fill="#f5f3ee">Skills</text>
  <text x="690" y="470"
        font-family="Georgia, 'Times New Roman', serif"
        font-size="28"
        fill="#c5c1b8">Strategy, validation, product decisions, launch, and PMF.</text>
  <text x="690" y="560"
        font-family="Arial, Helvetica, sans-serif"
        font-size="34"
        font-weight="700"
        fill="#ff9f1f">fskills.xyz</text>
</svg>
